<?xml version="1.0" encoding="utf-8"?>
<svg version="1.1" xmlns="http://www.w3.org/2000/svg" xmlns:xlink="http://www.w3.org/1999/xlink" height="313.26816597336483" width="266">
  <defs>
    <path id="path-1" opacity="1" fill-rule="evenodd" d="M44 56C44 25.09276008605957 69.09275817871094 0 100 0C130.90724182128906 0 156 25.092758178710938 156 56L156 62.166229248046875C161.67242431640625 63.11953353881836 166 68.0583724975586 166 74L166 88C166 94.04793548583984 161.5161895751953 99.05686950683594 155.69427490234375 99.88109588623047C153.6249237060547 119.67166900634766 141.23007202148438 136.4091339111328 124 144.60321044921875L124 163L159.5 163C181.85255432128906 163 200 181.14744567871094 200 203.5C200 225.85255432128906 181.85255432128906 244 159.5 244L40.5 244C18.147441864013672 244 0 225.85255432128906 0 203.5C0 181.14744567871094 18.147441864013672 163 40.5 163L76 163L76 144.60321044921875C58.76993179321289 136.4091339111328 46.375083923339844 119.67166900634766 44.305728912353516 99.88109588623047C38.48381805419922 99.05686950683594 34 94.04793548583984 34 88L34 74C34 68.0583724975586 38.32758712768555 63.11953353881836 44 62.166229248046875L44 56Z"/>
    <mask id="mask-2" maskUnits="userSpaceOnUse" maskContentUnits="userSpaceOnUse">
      <rect opacity="1" x="0" y="0" width="266" height="313.26816597336483" fill="Black"/>
      <use xlink:href="#path-1" fill="White"/>
    </mask>
    <path id="path-5" opacity="1" fill-rule="evenodd" d="M99.42938232421875 29.05172348022461L72.47413635253906 29.05172348022461C50.1358528137207 29.05172348022461 32 47.18757629394531 32 69.52586364746094C32 91.86415100097656 50.1358528137207 109.99999618530273 72.47413635253906 109.99999618530273L191.52586364746094 109.99999618530273C213.86415100097656 109.99999618530273 232 91.86415100097656 232 69.52586364746094C232 47.18757629394531 213.86415100097656 29.05172348022461 191.52586364746094 29.05172348022461L165.57061767578125 29.05172348022461C165.8531494140625 30.174535751342773 166 31.32634925842285 166 32.5C166 44.366172790527344 150.98915100097656 54 132.5 54C114.01084899902344 54 99 44.366172790527344 99 32.5C99 31.32634925842285 99.1468505859375 30.174535751342773 99.42938232421875 29.05172348022461Z"/>
    <mask id="mask-6" maskUnits="userSpaceOnUse" maskContentUnits="userSpaceOnUse">
      <rect opacity="1" x="0" y="0" width="266" height="313.26816597336483" fill="Black"/>
      <use xlink:href="#path-5" fill="White"/>
    </mask>
    <rect id="rect-17" opacity="1" x="0" y="0" width="264" height="280" rx="0" ry="0"/>
    <mask id="mask-18" maskUnits="userSpaceOnUse" maskContentUnits="userSpaceOnUse">
      <rect opacity="1" x="0" y="0" width="266" height="313.26816597336483" fill="Black"/>
      <use xlink:href="#rect-17" fill="White"/>
    </mask>
    <path id="path-19" opacity="1" fill-rule="evenodd" d="M183.00000095367432 97C183.00000095367432 96.43155670166016 182.96040439605713 95.87229919433594 182.88379001617432 95.3248291015625C161.36395359039307 83.73726654052734 142.88996982574463 67.14421844482422 130.84556674957275 48.30235290527344C112.76394748687744 73.92354583740234 76.53035068511963 78.53469848632812 51.22456455230713 94.67967987060547C51.07722568511963 95.43048858642578 51.000000953674316 96.20629119873047 51.000000953674316 97L51.000000953674316 110C51.000000953674316 116.0143814086914 55.434224128723145 121.00128173828125 61.208985328674316 121.86699676513672C62.95416736602783 142.09890747070312 75.47639560699463 159.26953125 93.00000095367432 167.60321044921875L93.00000095367432 186L57.500000953674316 186C35.14744281768799 186 17.000000953674316 204.14744567871094 17.000000953674316 226.5C17.000000953674316 248.85255432128906 35.14744281768799 267 57.500000953674316 267L16.005318641662598 267C-11.896162986755371 251.0681610107422 3.263990640640259 228.17445373535156 13.79394245147705 212.27294921875C17.77080249786377 206.26739501953125 21.087231636047363 201.25918579101562 21.174099922180176 198C21.317864418029785 193.3827667236328 18.032910346984863 190.1642608642578 14.01003360748291 186.22276306152344C7.800460338592529 180.13880920410156 -0.16728909313678741 172.33226013183594 0.0026737393345683813 155C0.5164047479629517 139.16604614257812 9.802946090698242 132.7474822998047 18.111512184143066 127.00485229492188C22.116459846496582 124.23675537109375 25.894177436828613 121.62571716308594 28.352585792541504 118.19292449951172C30.144143104553223 115.69129180908203 31.235051155090332 112.75325775146484 31.20266819000244 109C31.25782871246338 102.7988510131836 30.063931465148926 97.78662872314453 28.826294898986816 92.59076690673828C26.271733283996582 81.86616516113281 23.53081226348877 70.35919189453125 31.20266819000244 46C42.83959674835205 9.539327621459961 72.91659641265869 0.7681717872619629 116.00264835357666 0.015992900356650352L116.00264835357666 0C116.16951084136963 0.0024268128909170628 116.33617496490479 0.00497052539139986 116.50264835357666 0.007632264401763678C116.66912937164307 0.00497052539139986 116.83579349517822 0.0024268128909170628 117.00264835357666 0L117.00264835357666 0.015992900356650352C160.0887155532837 0.7681717872619629 190.16571140289307 9.539327621459961 201.80262851715088 46C209.47448825836182 70.35919952392578 206.733567237854 81.86616516113281 204.1790018081665 92.59077453613281C203.49775791168213 95.45074462890625 202.82977390289307 98.25508117675781 202.37605381011963 101.23267364501953C202.00547885894775 103.66463470458984 201.77783298492432 106.21217346191406 201.80262851715088 109C201.72581577301025 117.90354919433594 207.97024631500244 122.21951293945312 214.89378452301025 127.00485229492188C223.20234775543213 132.7474822998047 232.48889255523682 139.16604614257812 233.00262546539307 155C233.17259311676025 172.33224487304688 225.20485019683838 180.1387939453125 218.99525547027588 186.22276306152344C214.9723825454712 190.1642608642578 211.687424659729 193.3827667236328 211.83119297027588 198C211.84205722808838 198.4073944091797 211.9033670425415 198.84213256835938 212.01013278961182 199.30271911621094C212.75747776031494 202.52682495117188 215.73159885406494 207.01809692382812 219.211350440979 212.27294921875C220.52760410308838 214.26063537597656 221.91619968414307 216.35757446289062 223.2839822769165 218.53651428222656C232.85850620269775 233.78909301757812 241.4137887954712 253.05963134765625 216.99998569488525 267L176.50000095367432 267C198.85255527496338 267 217.00000095367432 248.85255432128906 217.00000095367432 226.5C217.00000095367432 204.14744567871094 198.85255527496338 186 176.50000095367432 186L141.00000095367432 186L141.00000095367432 167.60321044921875C158.523606300354 159.26953125 171.04583835601807 142.09890747070312 172.79101657867432 121.86699676513672C178.56578159332275 121.00128173828125 183.00000095367432 116.0143814086914 183.00000095367432 110L183.00000095367432 97Z"/>
    <mask id="mask-20" maskUnits="userSpaceOnUse" maskContentUnits="userSpaceOnUse">
      <rect opacity="1" x="0" y="0" width="266" height="313.26816597336483" fill="Black"/>
      <use xlink:href="#path-19" fill="White"/>
    </mask>
    <path id="path-22" opacity="1" fill-rule="evenodd" d="M202.3760528564453 101.23267364501953C202.82977294921875 98.25508117675781 203.4977569580078 95.45074462890625 204.1790008544922 92.59077453613281C206.7335662841797 81.86616516113281 209.4744873046875 70.35919952392578 201.80262756347656 46C190.16571044921875 9.539327621459961 160.08871459960938 0.7681717872619629 117.00264739990234 0.015992900356650352L117.00264739990234 0C116.8357925415039 0.0024268128909170628 116.66912841796875 0.00497052539139986 116.50264739990234 0.007632264401763678C116.33617401123047 0.00497052539139986 116.16950988769531 0.0024268128909170628 116.00264739990234 0L116.00264739990234 0.015992900356650352C72.91659545898438 0.7681717872619629 42.839595794677734 9.539327621459961 31.202667236328125 46C23.530811309814453 70.35919189453125 26.271732330322266 81.86616516113281 28.826295852661133 92.59076690673828C30.063932418823242 97.78662872314453 31.257827758789062 102.7988510131836 31.202667236328125 109C31.23505210876465 112.75325775146484 30.144142150878906 115.69129180908203 28.35258674621582 118.19292449951172C25.894176483154297 121.62571716308594 22.1164608001709 124.23675537109375 18.11151123046875 127.00485229492188C9.802946090698242 132.7474822998047 0.5164047479629517 139.16604614257812 0.0026737393345683813 155C-0.16728909313678741 172.33226013183594 7.800460338592529 180.13880920410156 14.01003360748291 186.22276306152344C18.03291130065918 190.1642608642578 21.3178653717041 193.3827667236328 21.17409896850586 198C21.08723258972168 201.25918579101562 17.770803451538086 206.26739501953125 13.79394245147705 212.27294921875C3.263990640640259 228.17445373535156 -11.896162986755371 251.0681610107422 16.005319595336914 267L57.5 267C35.14744186401367 267 17 248.85255432128906 17 226.5C17 204.14744567871094 35.14744186401367 186 57.5 186L93 186L93 140L141 140L141 186L176.5 186C198.85255432128906 186 217 204.14744567871094 217 226.5C217 248.85255432128906 198.85255432128906 267 176.5 267L216.99998474121094 267C241.41378784179688 253.05963134765625 232.85850524902344 233.78909301757812 223.2839813232422 218.53651428222656C221.91619873046875 216.35757446289062 220.52760314941406 214.26063537597656 219.21136474609375 212.27294921875C215.73159790039062 207.01809692382812 212.75747680664062 202.52682495117188 212.0101318359375 199.30271911621094C211.9033660888672 198.84213256835938 211.84205627441406 198.4073944091797 211.83119201660156 198C211.6874237060547 193.3827667236328 214.97238159179688 190.1642608642578 218.99525451660156 186.22276306152344C225.20484924316406 180.1387939453125 233.17259216308594 172.33224487304688 233.00262451171875 155C232.4888916015625 139.16604614257812 223.2023468017578 132.7474822998047 214.89378356933594 127.00485229492188C207.97024536132812 122.21951293945312 201.72581481933594 117.90354919433594 201.80262756347656 109C201.77783203125 106.21217346191406 202.00547790527344 103.66463470458984 202.3760528564453 101.23267364501953Z"/>
    <mask id="mask-23" maskUnits="userSpaceOnUse" maskContentUnits="userSpaceOnUse">
      <rect opacity="1" x="0" y="0" width="266" height="313.26816597336483" fill="Black"/>
      <use xlink:href="#path-22" fill="White"/>
    </mask>
  </defs>
  <g transform="translate(1, 21.023747254665523)" opacity="1">
    <g transform="translate(32, 36)" opacity="1">
      <g opacity="1">
        <use xlink:href="#path-1" fill="rgb(208,198,172)" fill-opacity="1"/>
      </g>
      <g mask="url(#mask-2)">
        <g transform="translate(-32, 0)" opacity="1">
          <g opacity="1">
            <rect fill="rgb(237,185,138)" fill-opacity="1" opacity="1" x="0" y="0" width="264" height="244" rx="0" ry="0"/>
          </g>
        </g>
        <g opacity="1">
          <path fill="rgb(0,0,0)" fill-opacity="0.1000000014901161" opacity="1" fill-rule="evenodd" d="M44 94L44 102C44 132.90724182128906 69.09275817871094 158 100 158C130.90724182128906 158 156 132.90724182128906 156 102L156 94C156 124.90724182128906 130.90724182128906 150 100 150C69.09275817871094 150 44 124.90724182128906 44 94Z"/>
        </g>
      </g>
    </g>
    <g transform="translate(0, 170)" opacity="1">
      <g opacity="1">
        <use xlink:href="#path-5" fill="rgb(230,230,230)" fill-opacity="1"/>
      </g>
      <g mask="url(#mask-6)">
        <g opacity="1">
          <g opacity="1">
            <rect fill="rgb(37,85,124)" fill-opacity="1" opacity="1" x="0" y="0" width="264" height="110" rx="0" ry="0"/>
          </g>
        </g>
        <g transform="translate(77, 58)" opacity="1">
          <g opacity="1">
            <path fill="rgb(255,255,255)" fill-opacity="1" opacity="1" fill-rule="evenodd" d="M87.68524044830475 13.403197755166456C86.29150996332463 6.971829775874636 81.47556368417706 3.2534242999768037 75.18443809314385 1.816881686358565C72.6586144163158 1.2402574044870551 64.27211537332919 -0.570361088193434 65.57848175347206 4.224653015249353C66.17091958939902 6.397486444485185 65.84148411074221 8.189401143212564 64.02503876433659 9.991352024061094C62.25500559862572 11.746315324978635 58.79365796583321 12.19064447888913 57.07322213047247 9.979947271650646C55.598952861345644 8.084933611132971 57.500032184312325 5.258835963827485 56.3515582228073 3.413090833722887C55.90563727103436 2.69596000215481 55.13619611853646 2.3296393547316785 54.32398295637859 2.6809057289730305C53.182789336943365 3.174503413296601 53.79024287838915 4.2356015775633695 53.251042543847426 4.9988076088695985C52.402427671340774 6.201780893122153 52.00564902853871 5.825424063577843 51.241668132593006 4.626100300096619C50.761620577368134 3.8724742608151614 51.23347774776461 3.0513320872639245 49.994909553146236 2.729261879193267C48.56159220816188 2.356554570420314 48.092465166041606 3.557246904190758 47.96278407292394 4.651646945495983C47.88133524601843 5.338669230700527 48.284939209510945 6.443561644223337 48.29904487227108 7.140163921452651C48.32634615503267 8.504172309740536 48.20849561777839 10.463052583756632 47.57419581495036 11.668763008587677C46.44938296517213 13.806013610302967 44.86954873603376 13.122184655773374 43.1909748675742 11.764562928835337C41.21072182459896 10.16333569041044 40.62965952315605 8.380088603514995 41.01278752457722 5.9476830094176805C41.47190409635161 3.031259723021569 41.305366271505804 0.23937633294737937 37.73344844352881 2.0636805285203508C32.712742543669066 4.627925060482298 28.053778640400758 9.198949826584144 25.14482696215142 13.983015367712916C22.699997090849408 18.002506307246183 20.77571167753539 22.87598510727274 22.941613443289615 27.455677485206547C25.15210730422111 32.13071359329156 28.803653873586214 36.14609882195706 33.90808370724821 37.33949211418484C35.229465792910034 37.6483328094594 38.999772942288004 39.15011060686533 40.25335684242522 37.890569750657015C42.199938303327876 35.93351423702657 37.705237118008526 34.10829766126076 36.817945428256245 32.91581674922581C35.55981131432544 31.22563244199951 34.480500602483275 28.001280840521684 35.86149048884121 26.09440623749715C37.620603141447475 23.66701873446044 39.46025457820054 25.020078560434285 40.90631252180699 26.73763427344563C42.041590863310574 28.085676008358895 43.655096674521516 31.563669303444787 45.41193422023103 28.759924970863747C46.62138104657022 26.828872292729095 46.51308595828259 23.658351122628513 49.8124459800229 25.04334425535159C54.526922491573174 27.021384513417203 54.67161929020969 36.15522262388543 55.51204377788784 40.33438009716478C55.87924603103147 42.16370238379835 57.5473544077658 44.39812147605052 58.982946859647 41.85942358948797C59.77195393145744 40.46348189445087 59.34605392037639 37.43757298491459 59.20226716449857 35.996012280235746C58.90559322515574 33.01116047937705 58.12250143127696 30.076033399027796 59.09260701207279 27.119009194050513C59.65364837282381 25.408296332485452 61.093336017119256 22.95946789491711 63.222381051145355 24.275120132984757C64.94691207892023 25.340780198215697 64.22843332091063 30.091087672209575 66.57452355289143 30.082420060377647C68.64123065794512 30.07512101883496 68.0774591689179 26.291024169053024 69.17770086421075 25.04334425535159C70.857184775429 23.138750602809143 74.09375184681765 24.044287944197592 75.08706351796081 26.291936549245865C76.42437135190019 29.31693307858933 72.88476004185772 31.417688472591216 73.04356250325446 34.076820544607955C73.19826977223688 36.66843648235494 76.53767167536087 35.65706303859766 77.93458730999645 34.99969310966027C80.80577221375896 33.649370424264916 83.05266778503923 31.146711555319307 84.60975094520961 28.428730960864748C87.01726906340414 24.225395412475276 88.73542979186793 18.206879470441148 87.68524044830475 13.403197755166456"/>
          </g>
        </g>
      </g>
    </g>
    <g transform="translate(76, 82)" opacity="1">
      <g transform="translate(2, 52)" opacity="1">
        <g opacity="1">
          <path fill="rgb(0,0,0)" fill-opacity="0.5999999642372131" opacity="1" fill-rule="evenodd" d="M40 16C40 21.37176300884982 46.158154376609865 25 54 25C61.84184562339013 25 68 21.37176300884982 68 16C68 14.895430500338414 67.05030098448957 14 66 14C64.7072747730862 14 64.13023156670201 14.905175505286783 64 16C62.75757575757598 18.937897297991867 59.683259513170576 20.7163149146088 54 21C48.316740486829424 20.7163149146088 45.24242424242402 18.937897297991867 44 16C43.86976843329799 14.905175505286783 43.2927252269138 14 42 14C40.94969901551044 14 40 14.895430500338414 40 16Z"/>
        </g>
      </g>
      <g transform="translate(28, 40)" opacity="1">
        <g opacity="1">
          <path fill="rgb(0,0,0)" fill-opacity="0.16" opacity="1" fill-rule="evenodd" d="M16 8C16 12.4182779984 21.3725830024 16 28 16L28 16C34.627416997599994 16 40 12.4182779984 40 8"/>
        </g>
      </g>
      <g transform="translate(0, 8)" opacity="1">
        <g opacity="1">
          <ellipse fill="rgb(255,255,255)" fill-opacity="1" opacity="1" rx="14" ry="14" cx="30" cy="22"/>
        </g>
        <g opacity="1">
          <ellipse fill="rgb(255,255,255)" fill-opacity="1" opacity="1" rx="14" ry="14" cx="82" cy="22"/>
        </g>
        <g opacity="1">
          <ellipse fill="rgb(0,0,0)" fill-opacity="0.699999988079071" opacity="1" rx="6" ry="6" cx="30" cy="14"/>
        </g>
        <g opacity="1">
          <ellipse fill="rgb(0,0,0)" fill-opacity="0.699999988079071" opacity="1" rx="6" ry="6" cx="82" cy="14"/>
        </g>
      </g>
      <g opacity="1">
        <g transform="translate(12, 0)" opacity="1">
          <g opacity="1">
            <path fill="rgb(0,0,0)" fill-opacity="0.5999999642372131" opacity="1" fill-rule="evenodd" d="M3.975795594115652 17.12791691187338C5.470991478210767 7.604761584233364 18.058548831398387 1.1086759714275793 27.163516698628822 5.3010427143201415C28.16683671637011 5.7630196851555615 29.354694624838157 5.324174437759039 29.816671595673576 4.320854420017751C30.27864856650899 3.317534402276463 29.839803319112473 2.129676493808414 28.836483301371185 1.6676995229729943C17.348821228058895 -3.621774655522071 1.935759481074089 4.332474596698419 0.02420440588434428 16.507491992086404C-0.14712120492232578 17.598693767499352 0.5985857646935623 18.62217443528888 1.6897875401065103 18.79350004609555C2.780989315519458 18.964825656902217 3.804469983308982 18.21911868728633 3.975795594115652 17.12791691187338Z"/>
          </g>
          <g transform="translate(73.0000971506917, 9.410436469121164) scale(-1, 1) translate(-73.0000971506917, -9.410436469121164)" opacity="1">
            <path fill="rgb(0,0,0)" fill-opacity="0.5999999642372131" opacity="1" fill-rule="evenodd" d="M61.975795594115645 17.127916911873385C63.470991478210756 7.60476158423337 76.05854883139838 1.108675971427584 85.16351669862881 5.301042714320145C86.1668367163701 5.763019685155564 87.35469462483815 5.324174437759043 87.81667159567357 4.3208544200177545C88.27864856650899 3.317534402276467 87.83980331911248 2.1296764938084176 86.83648330137119 1.6676995229729976C75.3488212280589 -3.6217746555220733 59.935759481074086 4.33247459669841 58.02420440588434 16.507491992086408C57.85287879507767 17.598693767499356 58.59858576469356 18.62217443528888 59.68978754010651 18.79350004609555C60.780989315519456 18.964825656902217 61.80446998330898 18.219118687286333 61.975795594115645 17.127916911873385Z"/>
          </g>
        </g>
      </g>
    </g>
    <g opacity="1">
      <g opacity="1"/>
      <g mask="url(#mask-18)">
        <g transform="translate(-1, 0)" opacity="1">
          <g transform="translate(16, 13)" opacity="1">
            <g opacity="1">
              <use xlink:href="#path-19" fill="rgb(49,71,86)" fill-opacity="1"/>
            </g>
            <g mask="url(#mask-20)">
              <g transform="translate(-15, -13)" opacity="1">
                <g opacity="1">
                  <rect fill="rgb(74,49,44)" fill-opacity="1" opacity="1" x="0" y="0" width="264" height="280" rx="0" ry="0"/>
                </g>
              </g>
            </g>
          </g>
          <g transform="translate(16, 13)" opacity="1">
            <g opacity="1"/>
            <g mask="url(#mask-23)">
              <g opacity="1">
                <path fill="rgb(0,0,0)" fill-opacity="0.16" opacity="1" fill-rule="evenodd" d="M130.84558296203613 48.30236053466797C108.24688911437988 80.32414245605469 57.29404640197754 79.52737426757812 34.75849914550781 109.4462890625C34.42808151245117 109.88496398925781 34.060691833496094 110.39181518554688 33.6737174987793 110.93612670898438C58.35439491271973 85.37324523925781 108.71096992492676 85.03575134277344 131.49492073059082 55.6119270324707C147.5899829864502 78.55963134765625 175.20701026916504 98.14544677734375 205.88021278381348 108.60301208496094C206.19512367248535 107.78974914550781 205.96438026428223 106.84119415283203 206.2637424468994 106.03648376464844C206.73800086975098 103.19984436035156 207.4362277984619 100.52825927734375 208.1483097076416 97.80367279052734C210.8185214996338 87.58678436279297 213.6835422515869 76.62456512451172 205.66436195373535 53.41856384277344C204.99566078186035 51.50901412963867 203.89829444885254 49.704444885253906 202.41939735412598 48.004852294921875C209.3220157623291 70.99929809570312 206.66243934631348 82.16473388671875 204.1789951324463 92.59075927734375C203.4977512359619 95.45073699951172 202.82976722717285 98.25508117675781 202.3760471343994 101.23268127441406C202.08965492248535 102.07737731933594 202.31040382385254 103.07307434082031 202.00913429260254 103.92675018310547C172.66443824768066 92.94951629638672 146.24353218078613 72.39041137695312 130.84558296203613 48.30236053466797ZM30.09886360168457 115.05683898925781C30.822330474853516 113.2849349975586 31.22246742248535 111.29485321044922 31.202667236328125 109C31.257827758789062 102.7988510131836 30.063932418823242 97.78662872314453 28.826295852661133 92.59076690673828C26.342851638793945 82.16474151611328 23.683284759521484 70.99930572509766 30.585887908935547 48.004886627197266C29.10700798034668 49.704463958740234 28.00965118408203 51.50902557373047 27.3409481048584 53.41856384277344C19.32176971435547 76.62457275390625 22.186777114868164 87.5867919921875 24.856992721557617 97.80368041992188C26.150659561157227 102.75357055664062 27.398605346679688 107.52851104736328 27.3409481048584 113.43608856201172C27.374797821044922 117.01166534423828 26.234500885009766 119.81060791015625 24.361839294433594 122.19380950927734C24.479509353637695 122.42852783203125 26.086408615112305 120.31192779541016 27.85464096069336 117.98281860351562C28.607641220092773 116.99097442626953 29.38990020751953 115.96058654785156 30.09886360168457 115.05683898925781Z"/>
              </g>
            </g>
          </g>
          <g opacity="1">
            <path fill="rgb(255,255,255)" fill-opacity="0.1" opacity="1" fill-rule="evenodd" d="M50.758499853913634 122.44628779388749C73.2940449242051 92.52737700235352 124.24687994383338 93.32414160106968 146.84558094385267 61.30235896489843C162.24353560057878 85.39041018798852 188.66444634156008 105.94951350584142 218.0091464993682 116.92674816512609C218.31041679504168 116.07307281667588 218.08966435277512 115.07738116578346 218.37606298867706 114.23267890135355C220.53119698463144 100.08939770637086 227.52037743697588 89.85516190632957 217.80263412917094 58.999999999999986C206.16570548500815 22.539327565248573 176.08870833000034 13.768171772509717 133.00265088727036 13.015992899949069C132.33617710940797 13.004970525597678 132.16951033904684 13.0024268129985 132.0026508872706 12.999999999999972C88.91659344454061 13.768171772509717 58.8395962895327 22.539327565248573 47.202667645369885 58.999999999999986C35.813945406541215 95.16074817525192 47.371680586070184 102.99927440120047 47.202667645369885 122.00000000000003C47.23505182152075 125.7532555116515 46.14414255270868 128.69129261629223 44.35258884459529 131.19292323982665C44.536111143945234 131.59459013306184 48.50617168350646 125.43655074929777 50.758499853913634 122.44628779388749Z"/>
          </g>
          <g transform="translate(49, 72)" opacity="1"/>
          <g transform="translate(62, 85)" opacity="1"/>
        </g>
      </g>
    </g>
  </g>
</svg>